<?xml version="1.0" encoding="utf-8"?>
<!-- Generator: Adobe Illustrator 24.0.0, SVG Export Plug-In . SVG Version: 6.00 Build 0)  -->
<svg version="1.1" id="Layer_1" xmlns="http://www.w3.org/2000/svg" xmlns:xlink="http://www.w3.org/1999/xlink" x="0px" y="0px"
	 viewBox="0 0 35.1 37.7" style="enable-background:new 0 0 35.1 37.7;" xml:space="preserve">
<style type="text/css">
	.st0{fill:#FF3300;}
</style>
<path class="st0" d="M14.6,33.5c0-0.9-0.8-1.7-1.7-1.7c-0.1,0-0.2,0-0.3,0c-2.2,0.4-5.1,0.5-5.8-1.6C6.1,28.5,5,27.1,3.6,26
	c-0.1-0.1-0.2-0.1-0.3-0.2c-0.3-0.7-0.9-1.1-1.6-1.1l0,0c-0.9,0-1.7,0.8-1.7,1.7c0,1.4,1.4,2.3,2,2.6c0.7,0.7,1.2,1.5,1.6,2.3
	c0.6,1.8,2.4,4.4,7.7,4.1c0,0.1,0,0.1,0,0.2v0.5c0,0.9,0.8,1.7,1.7,1.7s1.7-0.8,1.7-1.7v-0.5C14.6,35.2,14.6,34.7,14.6,33.5z
	 M32.9,7.5C33,7.3,33,7.1,33.1,6.8c0.3-1.9,0-3.9-0.7-5.6c-0.2-0.5-0.6-0.8-1.1-1c-0.6-0.2-2.9-0.6-7.2,2.1c-3.6-0.8-7.3-0.8-10.9,0
	C8.9-0.4,6.7-0.1,6.1,0.1C5.6,0.3,5.2,0.7,5,1.1C4.3,3,4,5,4.3,6.9c0,0.2,0.1,0.4,0.1,0.6C3,9.4,2.3,11.7,2.3,14.1
	c0,0.5,0,1.1,0.1,1.6C3,23.6,8.1,26,11.7,26.8c-0.1,0.2-0.1,0.4-0.2,0.7c-0.2,0.9,0.3,1.9,1.2,2.1s1.9-0.3,2.1-1.2l0,0
	c0.1-0.6,0.4-1.1,0.8-1.5c0.7-0.6,0.8-1.7,0.2-2.4c-0.3-0.3-0.7-0.5-1.1-0.6c-5.9-0.7-8.5-3.1-8.9-8.4c0-0.4-0.1-0.8-0.1-1.3
	c0-1.7,0.5-3.3,1.6-4.7C7.4,9.3,7.5,9.2,7.6,9C8.1,8.5,8.2,7.9,8,7.3C7.9,7,7.8,6.6,7.7,6.3C7.6,5.4,7.6,4.4,7.8,3.5
	c1.5,0.4,2.9,1.1,4.1,2c0.4,0.3,0.9,0.4,1.4,0.2c3.5-0.9,7.1-0.9,10.6,0c0.5,0.1,1,0,1.4-0.2c1.2-0.9,2.6-1.6,4.1-2
	c0.2,0.9,0.3,1.8,0.1,2.7c-0.1,0.4-0.2,0.7-0.3,1C29,7.8,29.1,8.5,29.5,9c0.1,0.1,0.3,0.3,0.4,0.5c1,1.3,1.6,2.9,1.5,4.6
	c0,0.4,0,0.9-0.1,1.3c-0.4,5.2-3,7.7-8.9,8.3c-0.9,0.1-1.6,1-1.5,1.9c0,0.4,0.3,0.8,0.6,1.1c0.4,0.4,0.7,1,0.8,1.6
	c0.1,0.5,0.2,0.9,0.2,1.4v4c0,1.1,0,1.9,0,2.3c0,0.9,0.8,1.7,1.7,1.7s1.7-0.8,1.7-1.7c0-0.4,0-1.2,0-2.3v-4c0-0.8-0.1-1.5-0.3-2.2
	c-0.1-0.2-0.1-0.5-0.2-0.7c5.4-0.9,9.3-5.6,9.3-11c0.1-0.5,0.1-1.1,0.1-1.6C35.1,11.7,34.4,9.4,32.9,7.5z"/>
</svg>
