<?xml version="1.0" encoding="utf-8"?>
<!-- Generator: Adobe Illustrator 24.0.0, SVG Export Plug-In . SVG Version: 6.00 Build 0)  -->
<svg version="1.1" id="Layer_1" xmlns="http://www.w3.org/2000/svg" xmlns:xlink="http://www.w3.org/1999/xlink" x="0px" y="0px"
	 viewBox="0 0 31.5 30.2" style="enable-background:new 0 0 31.5 30.2;" xml:space="preserve">
<style type="text/css">
	.st0{fill:#FF3333;}
</style>
<path class="st0" d="M6.5,3.3c0,1.8-1.5,3.2-3.3,3.2S0,5,0,3.2C0,1.4,1.5,0,3.3,0C5.1,0,6.5,1.5,6.5,3.3C6.5,3.3,6.5,3.3,6.5,3.3z
	 M6.6,9.2H0v21h6.6L6.6,9.2z M17,9.2h-6.5v21H17v-11c0-6.1,7.9-6.6,7.9,0v11h6.5V16.9c0-10.3-11.7-10-14.5-4.9L17,9.2L17,9.2z"/>
</svg>
